<?xml version="1.0" encoding="utf-8"?>
<!-- Generator: Adobe Illustrator 27.3.1, SVG Export Plug-In . SVG Version: 6.00 Build 0)  -->
<svg version="1.1"
	 id="svg5699" xmlns:sodipodi="http://sodipodi.sourceforge.net/DTD/sodipodi-0.dtd" xmlns:rdf="http://www.w3.org/1999/02/22-rdf-syntax-ns#" xmlns:inkscape="http://www.inkscape.org/namespaces/inkscape" xmlns:dc="http://purl.org/dc/elements/1.1/" xmlns:cc="http://creativecommons.org/ns#" sodipodi:docname="_svgclean2.svg"
	 xmlns="http://www.w3.org/2000/svg" xmlns:xlink="http://www.w3.org/1999/xlink" x="0px" y="0px" viewBox="0 0 354.3 354.3"
	 style="enable-background:new 0 0 354.3 354.3;" xml:space="preserve">
<style type="text/css">
	.st0{fill:none;}
	.st1{fill:#F4570D;stroke:#000000;stroke-width:0.6853;stroke-miterlimit:2.7412;}
	.st2{fill:#A83C09;stroke:#000000;stroke-width:0.6853;stroke-miterlimit:2.7412;}
	.st3{fill:#5A1F04;stroke:#000000;stroke-width:0.6853;stroke-miterlimit:2.7412;}
	
		.st4{fill:url(#path9372_00000108306097418488220370000008338272546406374551_);stroke:#000000;stroke-width:0.947;stroke-linecap:round;stroke-linejoin:round;stroke-miterlimit:2.7412;}
	.st5{fill:#333333;stroke:#000000;stroke-width:0.6853;stroke-miterlimit:2.7412;}
	.st6{fill:#FF5555;stroke:#000000;stroke-width:3.0838;stroke-miterlimit:2.7412;}
	.st7{fill:#FF8080;}
	.st8{fill:#B3B3B3;stroke:#000000;stroke-width:1.8462;stroke-miterlimit:2.7412;}
	.st9{fill:none;stroke:#000000;stroke-width:0.6853;stroke-miterlimit:2.7412;}
</style>
<sodipodi:namedview  bordercolor="#666666" borderopacity="1.0" id="base" inkscape:current-layer="layer1" inkscape:cx="211.71982" inkscape:cy="177.24118" inkscape:document-units="px" inkscape:pageopacity="0.0" inkscape:pageshadow="2" inkscape:window-height="645" inkscape:window-maximized="0" inkscape:window-width="760" inkscape:window-x="0" inkscape:window-y="0" inkscape:zoom="0.98994949" pagecolor="#ffffff" showgrid="false" units="cm">
	</sodipodi:namedview>
<g id="layer1" transform="translate(.000015259 -698.03)" inkscape:groupmode="layer" inkscape:label="Layer 1">
	
		<rect id="rect4085" x="-91.9" y="647.1" transform="matrix(0.7071 -0.7071 0.7071 0.7071 -588.189 374.8205)" class="st0" width="500.6" height="500.6"/>
	<g id="g9409" transform="matrix(.68529 0 0 .68529 1301.3 -313.61)">
		<g id="g6329" transform="matrix(-1 -.0020650 .0020650 -1 -2210.6 2850.8)">
			<path id="path6333" inkscape:connector-curvature="0" sodipodi:nodetypes="ccccccccc" class="st1" d="M-669.2,1286.7l1.8-1.3
				c74-74.3,147.8-147.4,221.9-221.5l1.3-1.8l-9-31l-99.7,99.7l-0.5-0.5l-130.9,131.4L-669.2,1286.7z"/>
			<path id="path6335" inkscape:connector-curvature="0" sodipodi:nodetypes="ccccc" class="st2" d="M-681.7,1265.2
				c79.6-74.7,158.8-164.1,229.3-233.8l-31-31c-80.8,74.8-159.1,164.1-229.4,233.8L-681.7,1265.2z"/>
			<path id="path6337" inkscape:connector-curvature="0" sodipodi:nodetypes="ccccccc" class="st3" d="M-736.9,1219.3l25,14.9
				c71.8-72,157-156.6,229.1-228.7l-28.9-11l-1.8,1.3c-74.4,73.9-148.1,147.3-222.1,221.6L-736.9,1219.3z"/>
			
				<linearGradient id="path9372_00000054965507794164521980000017828425172513206681_" gradientUnits="userSpaceOnUse" x1="2137.0664" y1="1675.3217" x2="2096.1411" y2="1785.1576" gradientTransform="matrix(-0.4856 -0.4836 -0.4836 0.4856 1443.7128 1214.0597)">
				<stop  offset="0" style="stop-color:#FFB380"/>
				<stop  offset="1" style="stop-color:#AD7A57"/>
			</linearGradient>
			
				<path id="path9372" inkscape:connector-curvature="0" sodipodi:nodetypes="csccc" style="fill:url(#path9372_00000054965507794164521980000017828425172513206681_);stroke:#000000;stroke-width:0.947;stroke-linecap:round;stroke-linejoin:round;stroke-miterlimit:2.7412;" d="
				M-445.5,1063.2c0,0-5-25.1-24-43.6c-19-18.5-42.8-25.1-42.8-25.1l125.4-58.4L-445.5,1063.2z"/>
			<path id="path6341" inkscape:connector-curvature="0" class="st5" d="M-385.6,934.7l-34.2,16l18.4,18.4L-385.6,934.7
				L-385.6,934.7z"/>
		</g>
		<g id="g9076" transform="translate(-1078 511.45)">
			<path id="path9086" inkscape:connector-curvature="0" sodipodi:nodetypes="cccccsssscc" class="st6" d="M-392,1120.5l-24.3-14.3
				l-28.5-28.5l-14.4-24.8l30.5-30.5c0,0,6.6-5.2,10.4-6.4c4.7-1.5,10.6-0.3,14.6,2.6c7.4,5.5,35.2,29.7,45.2,45.2
				c2.7,4.3,4.3,9.2,2.9,14.9c-0.9,3.7-6,10.3-6,10.3L-392,1120.5z"/>
			<path id="path9088" inkscape:connector-curvature="0" sodipodi:nodetypes="cccscc" class="st7" d="M-361.6,1074.4
				c-16.1-5.4-35.8-21.5-44-33.9c-6.2-9.8-5-5.1-5-5.1s1.8,7.7,13.7,22.6C-382.5,1076.1-361.2,1077.4-361.6,1074.4L-361.6,1074.4z"
				/>
			<g id="g9090">
				<path id="path9092" inkscape:connector-curvature="0" sodipodi:nodetypes="ccccccccc" class="st8" d="M-411.9,1140.6L-437,1126
					l-27.7-27.7l-14.3-26.5l20.6-21.8l14.4,25.4l28.9,28.9l25.5,14.7L-411.9,1140.6z"/>
				<path id="path9094" inkscape:connector-curvature="0" class="st9" d="M-394.6,1124.1l-25.3-14.6l-29.1-29.1l-13.9-24.1"/>
				<path id="path9096" inkscape:connector-curvature="0" class="st9" d="M-404.4,1133.5l-25.5-14.7l-29.1-29.1l-13.5-23.5"/>
			</g>
		</g>
	</g>
</g>
</svg>
